<svg xmlns="http://www.w3.org/2000/svg" xmlns:svg="http://www.w3.org/2000/svg" id="svg8" width="200" height="200" version="1.1" viewBox="0 0 52.917 52.917"><defs id="defs2"><marker style="overflow:visible" id="marker12947" orient="auto" refX="0" refY="0"><path id="path12945" d="M 8.7185878,4.0337352 -2.2072895,0.01601326 8.7185884,-4.0017078 c -1.7454984,2.3720609 -1.7354408,5.6174519 -6e-7,8.035443 z" transform="scale(-0.6)" style="fill:#ff8000;fill-opacity:.50196078;fill-rule:evenodd;stroke:#ff8000;stroke-width:.625;stroke-linejoin:round;stroke-opacity:.50196078"/></marker><marker id="marker12775" orient="auto" refX="0" refY="0" style="overflow:visible"><path id="path12773" style="fill:#0080ff;fill-opacity:1;fill-rule:evenodd;stroke:#0080ff;stroke-width:.625;stroke-linejoin:round;stroke-opacity:1" d="M 8.7185878,4.0337352 -2.2072895,0.01601326 8.7185884,-4.0017078 c -1.7454984,2.3720609 -1.7354408,5.6174519 -6e-7,8.035443 z" transform="scale(-0.6)"/></marker><marker id="marker12217" orient="auto" refX="0" refY="0" style="overflow:visible"><path id="path12215" style="fill:#ff8000;fill-opacity:.50196078;fill-rule:evenodd;stroke:#ff8000;stroke-width:.625;stroke-linejoin:round;stroke-opacity:.50196078" d="M 8.7185878,4.0337352 -2.2072895,0.01601326 8.7185884,-4.0017078 c -1.7454984,2.3720609 -1.7354408,5.6174519 -6e-7,8.035443 z" transform="scale(-0.6)"/></marker><marker style="overflow:visible" id="marker12055" orient="auto" refX="0" refY="0"><path id="path12053" d="M 8.7185878,4.0337352 -2.2072895,0.01601326 8.7185884,-4.0017078 c -1.7454984,2.3720609 -1.7354408,5.6174519 -6e-7,8.035443 z" transform="scale(-0.6)" style="fill:#ff8000;fill-opacity:1;fill-rule:evenodd;stroke:#ff8000;stroke-width:.625;stroke-linejoin:round;stroke-opacity:1"/></marker><marker id="marker11887" orient="auto" refX="0" refY="0" style="overflow:visible"><path id="path11885" style="fill:#ff8000;fill-opacity:1;fill-rule:evenodd;stroke:#ff8000;stroke-width:.625;stroke-linejoin:round;stroke-opacity:1" d="M 8.7185878,4.0337352 -2.2072895,0.01601326 8.7185884,-4.0017078 c -1.7454984,2.3720609 -1.7354408,5.6174519 -6e-7,8.035443 z" transform="scale(-0.6)"/></marker><marker id="marker11211" orient="auto" refX="0" refY="0" style="overflow:visible"><path id="path11209" style="fill:#0080ff;fill-opacity:1;fill-rule:evenodd;stroke:#0080ff;stroke-width:.625;stroke-linejoin:round;stroke-opacity:1" d="M 8.7185878,4.0337352 -2.2072895,0.01601326 8.7185884,-4.0017078 c -1.7454984,2.3720609 -1.7354408,5.6174519 -6e-7,8.035443 z" transform="scale(-0.6)"/></marker><marker id="marker9781" orient="auto" refX="0" refY="0" style="overflow:visible"><path id="path9779" style="fill:#0080ff;fill-opacity:1;fill-rule:evenodd;stroke:#0080ff;stroke-width:.625;stroke-linejoin:round;stroke-opacity:1" d="M 8.7185878,4.0337352 -2.2072895,0.01601326 8.7185884,-4.0017078 c -1.7454984,2.3720609 -1.7354408,5.6174519 -6e-7,8.035443 z" transform="scale(-0.6)"/></marker><marker style="overflow:visible" id="marker8975" orient="auto" refX="0" refY="0"><path id="path8973" d="M 8.7185878,4.0337352 -2.2072895,0.01601326 8.7185884,-4.0017078 c -1.7454984,2.3720609 -1.7354408,5.6174519 -6e-7,8.035443 z" transform="scale(-0.6)" style="fill:#ff8000;fill-opacity:1;fill-rule:evenodd;stroke:#ff8000;stroke-width:.625;stroke-linejoin:round;stroke-opacity:1"/></marker><marker id="Arrow2Lend" orient="auto" refX="0" refY="0" style="overflow:visible"><path id="path898" style="fill:#000;fill-opacity:1;fill-rule:evenodd;stroke:#000;stroke-width:.625;stroke-linejoin:round;stroke-opacity:1" d="M 8.7185878,4.0337352 -2.2072895,0.01601326 8.7185884,-4.0017078 c -1.7454984,2.3720609 -1.7354408,5.6174519 -6e-7,8.035443 z" transform="matrix(-1.1,0,0,-1.1,-1.1,0)"/></marker><marker style="overflow:visible" id="marker8044" orient="auto" refX="0" refY="0"><path id="path8042" d="M 8.7185878,4.0337352 -2.2072895,0.01601326 8.7185884,-4.0017078 c -1.7454984,2.3720609 -1.7354408,5.6174519 -6e-7,8.035443 z" transform="scale(-0.6)" style="fill:#0080ff;fill-opacity:1;fill-rule:evenodd;stroke:#0080ff;stroke-width:.625;stroke-linejoin:round;stroke-opacity:1"/></marker><marker id="marker7932" orient="auto" refX="0" refY="0" style="overflow:visible"><path id="path7930" style="fill:#000;fill-opacity:1;fill-rule:evenodd;stroke:#000;stroke-width:.625;stroke-linejoin:round;stroke-opacity:1" d="M 8.7185878,4.0337352 -2.2072895,0.01601326 8.7185884,-4.0017078 c -1.7454984,2.3720609 -1.7354408,5.6174519 -6e-7,8.035443 z" transform="scale(-0.6)"/></marker><marker id="marker7832" orient="auto" refX="0" refY="0" style="overflow:visible"><path id="path7830" style="fill:#000;fill-opacity:1;fill-rule:evenodd;stroke:#000;stroke-width:.625;stroke-linejoin:round;stroke-opacity:1" d="M 8.7185878,4.0337352 -2.2072895,0.01601326 8.7185884,-4.0017078 c -1.7454984,2.3720609 -1.7354408,5.6174519 -6e-7,8.035443 z" transform="scale(-0.6)"/></marker><marker id="Arrow1Lend" orient="auto" refX="0" refY="0" style="overflow:visible"><path id="path880" d="M 0,0 5,-5 -12.5,0 5,5 Z" style="fill:#000;fill-opacity:1;fill-rule:evenodd;stroke:#000;stroke-width:1.00000003pt;stroke-opacity:1" transform="matrix(-0.8,0,0,-0.8,-10,0)"/></marker><marker style="overflow:visible" id="marker3503" orient="auto" refX="0" refY="0"><path id="path3501" d="M 8.7185878,4.0337352 -2.2072895,0.01601326 8.7185884,-4.0017078 c -1.7454984,2.3720609 -1.7354408,5.6174519 -6e-7,8.035443 z" transform="scale(-0.6)" style="fill:#000;fill-opacity:1;fill-rule:evenodd;stroke:#000;stroke-width:.625;stroke-linejoin:round;stroke-opacity:1"/></marker><marker id="marker3423" orient="auto" refX="0" refY="0" style="overflow:visible"><path id="path3421" style="fill:#000;fill-opacity:1;fill-rule:evenodd;stroke:#000;stroke-width:.625;stroke-linejoin:round;stroke-opacity:1" d="M 8.7185878,4.0337352 -2.2072895,0.01601326 8.7185884,-4.0017078 c -1.7454984,2.3720609 -1.7354408,5.6174519 -6e-7,8.035443 z" transform="scale(-0.6)"/></marker><marker style="overflow:visible" id="marker3353" orient="auto" refX="0" refY="0"><path id="path3351" d="M 8.7185878,4.0337352 -2.2072895,0.01601326 8.7185884,-4.0017078 c -1.7454984,2.3720609 -1.7354408,5.6174519 -6e-7,8.035443 z" transform="scale(-0.6)" style="fill:#000;fill-opacity:1;fill-rule:evenodd;stroke:#000;stroke-width:.625;stroke-linejoin:round;stroke-opacity:1"/></marker><marker style="overflow:visible" id="marker2051" orient="auto" refX="0" refY="0"><path id="path2049" d="M 8.7185878,4.0337352 -2.2072895,0.01601326 8.7185884,-4.0017078 c -1.7454984,2.3720609 -1.7354408,5.6174519 -6e-7,8.035443 z" transform="scale(-0.6)" style="fill:#000;fill-opacity:1;fill-rule:evenodd;stroke:#000;stroke-width:.625;stroke-linejoin:round;stroke-opacity:1"/></marker><marker id="Arrow2Send" orient="auto" refX="0" refY="0" style="overflow:visible"><path id="path910" style="fill:#000;fill-opacity:1;fill-rule:evenodd;stroke:#000;stroke-width:.625;stroke-linejoin:round;stroke-opacity:1" d="M 8.7185878,4.0337352 -2.2072895,0.01601326 8.7185884,-4.0017078 c -1.7454984,2.3720609 -1.7354408,5.6174519 -6e-7,8.035443 z" transform="matrix(-0.3,0,0,-0.3,0.69,0)"/></marker></defs><metadata id="metadata5"/><g id="layer1" transform="translate(0,-244.08332)"><g id="g13427" transform="matrix(0.1,0,0,0.1,-34.866782,250.98618)"><rect id="rect13390" width="529.167" height="529.167" x="348.668" y="-69.029" rx="10.583" ry="10.583" style="opacity:1;fill:#fff;fill-rule:evenodd;stroke:none;stroke-width:2.64583325;stroke-linecap:round;stroke-miterlimit:4;stroke-dasharray:none;stroke-dashoffset:0;stroke-opacity:1"/><g id="g13386" transform="translate(163.4594,219.25001)"><g id="g13138"><path id="path8832" d="m 265.92509,-138.76862 h 23.77494" style="fill:none;stroke:#ff8000;stroke-width:2.64583325;stroke-linecap:round;stroke-linejoin:miter;stroke-miterlimit:4;stroke-dasharray:none;stroke-opacity:1"/><path id="path8834" d="M 277.81256,-138.74991 V -35.60009" style="fill:none;stroke:#ff8000;stroke-width:2.64583325;stroke-linecap:round;stroke-linejoin:miter;stroke-miterlimit:4;stroke-dasharray:none;stroke-opacity:1;marker-end:url(#marker8975)"/><path style="fill:none;stroke:#0080ff;stroke-width:2.64583325;stroke-linecap:round;stroke-linejoin:miter;stroke-miterlimit:4;stroke-dasharray:none;stroke-opacity:1" id="path8965" d="m 292.38343,-138.76862 h 23.77494"/></g><g id="g13146"><path style="fill:none;stroke:#ff8000;stroke-width:2.64583325;stroke-linecap:round;stroke-linejoin:miter;stroke-miterlimit:4;stroke-dasharray:none;stroke-opacity:1" id="path9771" d="m 371.75843,-138.76862 h 23.77494"/><path style="fill:none;stroke:#ff8000;stroke-width:2.64583325;stroke-linecap:round;stroke-linejoin:miter;stroke-miterlimit:4;stroke-dasharray:none;stroke-opacity:1;marker-end:url(#marker11887)" id="path9773" d="M 383.6459,-138.74991 V -35.60009"/><path id="path9775" d="M 410.10698,6.9436687 V 52.298278" style="fill:none;stroke:#0080ff;stroke-width:2.64583302;stroke-linecap:round;stroke-linejoin:miter;stroke-miterlimit:4;stroke-dasharray:none;stroke-opacity:1;marker-end:url(#marker8044)"/><path id="path9777" d="m 398.21677,-138.76862 h 23.77494" style="fill:none;stroke:#0080ff;stroke-width:2.64583325;stroke-linecap:round;stroke-linejoin:miter;stroke-miterlimit:4;stroke-dasharray:none;stroke-opacity:.50196078"/><path style="fill:none;stroke:#0080ff;stroke-width:2.64583325;stroke-linecap:round;stroke-linejoin:miter;stroke-miterlimit:4;stroke-dasharray:none;stroke-opacity:1" id="path10971" d="m 398.21677,6.3213957 h 23.77494"/><path style="fill:none;stroke:#0080ff;stroke-width:2.64583325;stroke-linecap:round;stroke-linejoin:miter;stroke-miterlimit:4;stroke-dasharray:none;stroke-opacity:.50196078" id="path11207" d="M 410.07923,-138.27811 V 6.5508268"/></g><g id="g13156"><path style="fill:none;stroke:#0080ff;stroke-width:2.64583302;stroke-linecap:round;stroke-linejoin:miter;stroke-miterlimit:4;stroke-dasharray:none;stroke-opacity:1;marker-end:url(#marker8044)" id="path12045" d="M 515.94031,6.9436687 V 52.298278"/><path style="fill:none;stroke:#0080ff;stroke-width:2.64583325;stroke-linecap:round;stroke-linejoin:miter;stroke-miterlimit:4;stroke-dasharray:none;stroke-opacity:.50196078" id="path12047" d="m 504.0501,-138.76862 h 23.77494"/><path id="path12049" d="m 504.0501,6.3213957 h 23.77494" style="fill:none;stroke:#0080ff;stroke-width:2.64583325;stroke-linecap:round;stroke-linejoin:miter;stroke-miterlimit:4;stroke-dasharray:none;stroke-opacity:1"/><path id="path12051" d="M 515.91256,-138.27811 V 6.5508268" style="fill:none;stroke:#0080ff;stroke-width:2.64583325;stroke-linecap:round;stroke-linejoin:miter;stroke-miterlimit:4;stroke-dasharray:none;stroke-opacity:.50196078"/><path id="path12207" d="M 489.44026,9.1455916 V 155.74201" style="fill:none;stroke:#ff8000;stroke-width:2.64583302;stroke-linecap:round;stroke-linejoin:miter;stroke-miterlimit:4;stroke-dasharray:none;stroke-opacity:.50196078;marker-end:url(#marker12217)"/><path id="path12209" d="M 477.59176,-138.76862 H 501.3667" style="fill:none;stroke:#ff8000;stroke-width:2.64583325;stroke-linecap:round;stroke-linejoin:miter;stroke-miterlimit:4;stroke-dasharray:none;stroke-opacity:.50196078"/><path style="fill:none;stroke:#ff8000;stroke-width:2.64583325;stroke-linecap:round;stroke-linejoin:miter;stroke-miterlimit:4;stroke-dasharray:none;stroke-opacity:1" id="path12211" d="M 477.59176,158.41903 H 501.3667"/><path style="fill:none;stroke:#ff8000;stroke-width:2.64583325;stroke-linecap:round;stroke-linejoin:miter;stroke-miterlimit:4;stroke-dasharray:none;stroke-opacity:.50196078" id="path12213" d="M 489.45422,-138.27811 V 6.5508268"/></g><g id="g13162"><path id="path12765" d="M 621.77364,6.9436687 V 52.298278" style="fill:none;stroke:#0080ff;stroke-width:2.64583302;stroke-linecap:round;stroke-linejoin:miter;stroke-miterlimit:4;stroke-dasharray:none;stroke-opacity:1;marker-end:url(#marker12775)"/><path style="fill:none;stroke:#0080ff;stroke-width:2.64583325;stroke-linecap:round;stroke-linejoin:miter;stroke-miterlimit:4;stroke-dasharray:none;stroke-opacity:1" id="path12767" d="m 609.88343,6.3213957 h 23.77494"/><path style="fill:none;stroke:#ff8000;stroke-width:2.64583302;stroke-linecap:round;stroke-linejoin:miter;stroke-miterlimit:4;stroke-dasharray:none;stroke-opacity:.50196078;marker-end:url(#marker12947)" id="path12769" d="M 595.27359,9.1455916 V 155.74201"/><path id="path12771" d="m 583.42509,158.41903 h 23.77494" style="fill:none;stroke:#ff8000;stroke-width:2.64583325;stroke-linecap:round;stroke-linejoin:miter;stroke-miterlimit:4;stroke-dasharray:none;stroke-opacity:1"/></g><text xml:space="preserve" style="font-style:normal;font-weight:400;font-size:35.27777481px;line-height:1.25;font-family:sans-serif;letter-spacing:0;word-spacing:0;fill:#000;fill-opacity:1;stroke:none;stroke-width:.26458332" id="text13166" x="279.509" y="-180.45"><tspan id="tspan13164" x="279.509" y="-180.45" style="stroke-width:.26458332">1</tspan></text><text xml:space="preserve" style="font-style:normal;font-weight:400;font-size:35.27777481px;line-height:1.25;font-family:sans-serif;letter-spacing:0;word-spacing:0;fill:#000;fill-opacity:1;stroke:none;stroke-width:.26458332" id="text13170" x="386.126" y="-180.45"><tspan id="tspan13168" x="386.126" y="-180.45" style="stroke-width:.26458332">2</tspan></text><text xml:space="preserve" style="font-style:normal;font-weight:400;font-size:35.27777481px;line-height:1.25;font-family:sans-serif;letter-spacing:0;word-spacing:0;fill:#000;fill-opacity:1;stroke:none;stroke-width:.26458332" id="text13174" x="491.555" y="-180.95"><tspan id="tspan13172" x="491.555" y="-180.95" style="stroke-width:.26458332">3</tspan></text><text xml:space="preserve" style="font-style:normal;font-weight:400;font-size:35.27777481px;line-height:1.25;font-family:sans-serif;letter-spacing:0;word-spacing:0;fill:#000;fill-opacity:1;stroke:none;stroke-width:.26458332" id="text13178" x="597.449" y="-180.45"><tspan id="tspan13176" x="597.449" y="-180.45" style="stroke-width:.26458332">4</tspan></text></g></g></g></svg>