<svg xmlns="http://www.w3.org/2000/svg" xmlns:svg="http://www.w3.org/2000/svg" id="svg8" width="400" height="600" version="1.1" viewBox="0 0 105.833 158.75"><defs id="defs2"><marker id="marker4357" orient="auto" refX="0" refY="0" style="overflow:visible"><path id="path4355" style="fill:#000;fill-opacity:1;fill-rule:evenodd;stroke:#000;stroke-width:.625;stroke-linejoin:round;stroke-opacity:1" d="M 8.7185878,4.0337352 -2.2072895,0.01601326 8.7185884,-4.0017078 c -1.7454984,2.3720609 -1.7354408,5.6174519 -6e-7,8.035443 z" transform="scale(-0.6)"/></marker><marker style="overflow:visible" id="marker4009" orient="auto" refX="0" refY="0"><path id="path4007" d="M 8.7185878,4.0337352 -2.2072895,0.01601326 8.7185884,-4.0017078 c -1.7454984,2.3720609 -1.7354408,5.6174519 -6e-7,8.035443 z" transform="scale(-0.6)" style="fill:#000;fill-opacity:1;fill-rule:evenodd;stroke:#000;stroke-width:.625;stroke-linejoin:round;stroke-opacity:1"/></marker><marker id="marker3667" orient="auto" refX="0" refY="0" style="overflow:visible"><path id="path3665" style="fill:#000;fill-opacity:1;fill-rule:evenodd;stroke:#000;stroke-width:.625;stroke-linejoin:round;stroke-opacity:1" d="M 8.7185878,4.0337352 -2.2072895,0.01601326 8.7185884,-4.0017078 c -1.7454984,2.3720609 -1.7354408,5.6174519 -6e-7,8.035443 z" transform="scale(-0.6)"/></marker><marker style="overflow:visible" id="marker3361" orient="auto" refX="0" refY="0"><path id="path3359" d="M 8.7185878,4.0337352 -2.2072895,0.01601326 8.7185884,-4.0017078 c -1.7454984,2.3720609 -1.7354408,5.6174519 -6e-7,8.035443 z" transform="scale(-0.6)" style="fill:#000;fill-opacity:1;fill-rule:evenodd;stroke:#000;stroke-width:.625;stroke-linejoin:round;stroke-opacity:1"/></marker><marker style="overflow:visible" id="marker12947" orient="auto" refX="0" refY="0"><path id="path12945" d="M 8.7185878,4.0337352 -2.2072895,0.01601326 8.7185884,-4.0017078 c -1.7454984,2.3720609 -1.7354408,5.6174519 -6e-7,8.035443 z" transform="scale(-0.6)" style="fill:#ff8000;fill-opacity:.50196078;fill-rule:evenodd;stroke:#ff8000;stroke-width:.625;stroke-linejoin:round;stroke-opacity:.50196078"/></marker><marker id="marker12775" orient="auto" refX="0" refY="0" style="overflow:visible"><path id="path12773" style="fill:#0080ff;fill-opacity:1;fill-rule:evenodd;stroke:#0080ff;stroke-width:.625;stroke-linejoin:round;stroke-opacity:1" d="M 8.7185878,4.0337352 -2.2072895,0.01601326 8.7185884,-4.0017078 c -1.7454984,2.3720609 -1.7354408,5.6174519 -6e-7,8.035443 z" transform="scale(-0.6)"/></marker><marker style="overflow:visible" id="marker12055" orient="auto" refX="0" refY="0"><path id="path12053" d="M 8.7185878,4.0337352 -2.2072895,0.01601326 8.7185884,-4.0017078 c -1.7454984,2.3720609 -1.7354408,5.6174519 -6e-7,8.035443 z" transform="scale(-0.6)" style="fill:#ff8000;fill-opacity:1;fill-rule:evenodd;stroke:#ff8000;stroke-width:.625;stroke-linejoin:round;stroke-opacity:1"/></marker><marker id="marker11211" orient="auto" refX="0" refY="0" style="overflow:visible"><path id="path11209" style="fill:#0080ff;fill-opacity:1;fill-rule:evenodd;stroke:#0080ff;stroke-width:.625;stroke-linejoin:round;stroke-opacity:1" d="M 8.7185878,4.0337352 -2.2072895,0.01601326 8.7185884,-4.0017078 c -1.7454984,2.3720609 -1.7354408,5.6174519 -6e-7,8.035443 z" transform="scale(-0.6)"/></marker><marker id="marker9781" orient="auto" refX="0" refY="0" style="overflow:visible"><path id="path9779" style="fill:#0080ff;fill-opacity:1;fill-rule:evenodd;stroke:#0080ff;stroke-width:.625;stroke-linejoin:round;stroke-opacity:1" d="M 8.7185878,4.0337352 -2.2072895,0.01601326 8.7185884,-4.0017078 c -1.7454984,2.3720609 -1.7354408,5.6174519 -6e-7,8.035443 z" transform="scale(-0.6)"/></marker><marker id="marker8272" orient="auto" refX="0" refY="0" style="overflow:visible"><path id="path8270" style="fill:#000;fill-opacity:1;fill-rule:evenodd;stroke:#000;stroke-width:.625;stroke-linejoin:round;stroke-opacity:1" d="M 8.7185878,4.0337352 -2.2072895,0.01601326 8.7185884,-4.0017078 c -1.7454984,2.3720609 -1.7354408,5.6174519 -6e-7,8.035443 z" transform="scale(-0.6)"/></marker><marker id="Arrow2Lend" orient="auto" refX="0" refY="0" style="overflow:visible"><path id="path898" style="fill:#000;fill-opacity:1;fill-rule:evenodd;stroke:#000;stroke-width:.625;stroke-linejoin:round;stroke-opacity:1" d="M 8.7185878,4.0337352 -2.2072895,0.01601326 8.7185884,-4.0017078 c -1.7454984,2.3720609 -1.7354408,5.6174519 -6e-7,8.035443 z" transform="matrix(-1.1,0,0,-1.1,-1.1,0)"/></marker><marker id="marker7932" orient="auto" refX="0" refY="0" style="overflow:visible"><path id="path7930" style="fill:#000;fill-opacity:1;fill-rule:evenodd;stroke:#000;stroke-width:.625;stroke-linejoin:round;stroke-opacity:1" d="M 8.7185878,4.0337352 -2.2072895,0.01601326 8.7185884,-4.0017078 c -1.7454984,2.3720609 -1.7354408,5.6174519 -6e-7,8.035443 z" transform="scale(-0.6)"/></marker><marker id="marker7832" orient="auto" refX="0" refY="0" style="overflow:visible"><path id="path7830" style="fill:#000;fill-opacity:1;fill-rule:evenodd;stroke:#000;stroke-width:.625;stroke-linejoin:round;stroke-opacity:1" d="M 8.7185878,4.0337352 -2.2072895,0.01601326 8.7185884,-4.0017078 c -1.7454984,2.3720609 -1.7354408,5.6174519 -6e-7,8.035443 z" transform="scale(-0.6)"/></marker><marker id="Arrow1Lend" orient="auto" refX="0" refY="0" style="overflow:visible"><path id="path880" d="M 0,0 5,-5 -12.5,0 5,5 Z" style="fill:#000;fill-opacity:1;fill-rule:evenodd;stroke:#000;stroke-width:1.00000003pt;stroke-opacity:1" transform="matrix(-0.8,0,0,-0.8,-10,0)"/></marker><marker id="marker3737" orient="auto" refX="0" refY="0" style="overflow:visible"><path id="path3735" style="fill:#000;fill-opacity:1;fill-rule:evenodd;stroke:#000;stroke-width:.625;stroke-linejoin:round;stroke-opacity:1" d="M 8.7185878,4.0337352 -2.2072895,0.01601326 8.7185884,-4.0017078 c -1.7454984,2.3720609 -1.7354408,5.6174519 -6e-7,8.035443 z" transform="scale(-0.6)"/></marker><marker style="overflow:visible" id="marker3503" orient="auto" refX="0" refY="0"><path id="path3501" d="M 8.7185878,4.0337352 -2.2072895,0.01601326 8.7185884,-4.0017078 c -1.7454984,2.3720609 -1.7354408,5.6174519 -6e-7,8.035443 z" transform="scale(-0.6)" style="fill:#000;fill-opacity:1;fill-rule:evenodd;stroke:#000;stroke-width:.625;stroke-linejoin:round;stroke-opacity:1"/></marker><marker id="marker3423" orient="auto" refX="0" refY="0" style="overflow:visible"><path id="path3421" style="fill:#000;fill-opacity:1;fill-rule:evenodd;stroke:#000;stroke-width:.625;stroke-linejoin:round;stroke-opacity:1" d="M 8.7185878,4.0337352 -2.2072895,0.01601326 8.7185884,-4.0017078 c -1.7454984,2.3720609 -1.7354408,5.6174519 -6e-7,8.035443 z" transform="scale(-0.6)"/></marker><marker style="overflow:visible" id="marker3353" orient="auto" refX="0" refY="0"><path id="path3351" d="M 8.7185878,4.0337352 -2.2072895,0.01601326 8.7185884,-4.0017078 c -1.7454984,2.3720609 -1.7354408,5.6174519 -6e-7,8.035443 z" transform="scale(-0.6)" style="fill:#000;fill-opacity:1;fill-rule:evenodd;stroke:#000;stroke-width:.625;stroke-linejoin:round;stroke-opacity:1"/></marker><marker style="overflow:visible" id="marker2051" orient="auto" refX="0" refY="0"><path id="path2049" d="M 8.7185878,4.0337352 -2.2072895,0.01601326 8.7185884,-4.0017078 c -1.7454984,2.3720609 -1.7354408,5.6174519 -6e-7,8.035443 z" transform="scale(-0.6)" style="fill:#000;fill-opacity:1;fill-rule:evenodd;stroke:#000;stroke-width:.625;stroke-linejoin:round;stroke-opacity:1"/></marker><marker id="marker2003" orient="auto" refX="0" refY="0" style="overflow:visible"><path id="path2001" style="fill:#000;fill-opacity:1;fill-rule:evenodd;stroke:#000;stroke-width:.625;stroke-linejoin:round;stroke-opacity:1" d="M 8.7185878,4.0337352 -2.2072895,0.01601326 8.7185884,-4.0017078 c -1.7454984,2.3720609 -1.7354408,5.6174519 -6e-7,8.035443 z" transform="scale(-0.6)"/></marker><marker id="Arrow2Mend" orient="auto" refX="0" refY="0" style="overflow:visible"><path id="path904" style="fill:#000;fill-opacity:1;fill-rule:evenodd;stroke:#000;stroke-width:.625;stroke-linejoin:round;stroke-opacity:1" d="M 8.7185878,4.0337352 -2.2072895,0.01601326 8.7185884,-4.0017078 c -1.7454984,2.3720609 -1.7354408,5.6174519 -6e-7,8.035443 z" transform="scale(-0.6)"/></marker><marker id="Arrow2Send" orient="auto" refX="0" refY="0" style="overflow:visible"><path id="path910" style="fill:#000;fill-opacity:1;fill-rule:evenodd;stroke:#000;stroke-width:.625;stroke-linejoin:round;stroke-opacity:1" d="M 8.7185878,4.0337352 -2.2072895,0.01601326 8.7185884,-4.0017078 c -1.7454984,2.3720609 -1.7354408,5.6174519 -6e-7,8.035443 z" transform="matrix(-0.3,0,0,-0.3,0.69,0)"/></marker></defs><metadata id="metadata5"/><g id="layer1" transform="translate(0,-138.24998)"><g id="g5649" transform="matrix(0.09999999,0,0,0.09999999,13.154455,187.47674)"><rect id="rect5570" width="1058.333" height="1587.5" x="-131.545" y="-492.267" rx="10.583" ry="10.583" style="opacity:1;fill:#fff;fill-opacity:1;fill-rule:evenodd;stroke:none;stroke-width:5.29166651;stroke-linecap:round;stroke-miterlimit:4;stroke-dasharray:none;stroke-dashoffset:0;stroke-opacity:1"/><g id="g5568" transform="translate(-142.7549,100.88491)"><path style="fill:none;stroke:#000;stroke-width:10.58333302;stroke-linecap:butt;stroke-linejoin:miter;stroke-miterlimit:4;stroke-dasharray:none;stroke-opacity:1;marker-end:url(#marker8272)" id="path7730" d="M 403.01558,204.49748 H 533.48416"/><g id="g5437" transform="translate(1.2299431e-6)"><path style="fill:none;stroke:#000;stroke-width:5.29166603;stroke-linecap:round;stroke-linejoin:miter;stroke-miterlimit:4;stroke-dasharray:none;stroke-opacity:1;marker-end:url(#marker3737)" id="path3357" d="m 727.55332,-333.99163 v 66.04149"/><path style="fill:none;stroke:#000;stroke-width:5.29166603;stroke-linecap:round;stroke-linejoin:miter;stroke-miterlimit:4;stroke-dasharray:none;stroke-opacity:1;marker-end:url(#marker3361)" id="path3663" d="m 727.55332,-69.408259 v 66.04149"/><path style="fill:none;stroke:#000;stroke-width:5.29166603;stroke-linecap:round;stroke-linejoin:miter;stroke-miterlimit:4;stroke-dasharray:none;stroke-opacity:1;marker-end:url(#marker3667)" id="path4005" d="m 727.55332,248.09176 v 66.04149"/><path style="fill:none;stroke:#000;stroke-width:5.29166603;stroke-linecap:round;stroke-linejoin:miter;stroke-miterlimit:4;stroke-dasharray:none;stroke-opacity:1;marker-end:url(#marker4009)" id="path4353" d="m 727.55332,618.50844 v 66.04149"/><g id="g3201" transform="translate(12.170858,-3.1750718)"><path d="m 726.01667,-403.70626 a 10.583333,10.583333 0 0 1 -10.58333,10.58333 10.583333,10.583333 0 0 1 -10.58333,-10.58333 10.583333,10.583333 0 0 1 10.58333,-10.58333 10.583333,10.583333 0 0 1 10.58333,10.58333 z m 2.64584,0 a 13.229167,13.229167 0 0 1 -13.22917,13.22917 13.229167,13.229167 0 0 1 -13.22917,-13.22917 13.229167,13.229167 0 0 1 13.22917,-13.22917 13.229167,13.229167 0 0 1 13.22917,13.22917 z" style="fill-rule:evenodd;stroke-width:.52916664;stroke-miterlimit:4;stroke-dasharray:none" id="path2599"/><rect style="fill:none;fill-opacity:1;fill-rule:evenodd;stroke:#000;stroke-width:5.29166651;stroke-linecap:round;stroke-miterlimit:4;stroke-dasharray:none;stroke-dashoffset:0;stroke-opacity:1" id="rect3583" width="259.292" height="127" x="585.787" y="-490.929" rx="10.583" ry="10.583"/><text id="text2639" x="607.74" y="-393.433" style="font-style:normal;font-weight:400;font-size:28.22222137px;line-height:1.25;font-family:sans-serif;text-align:start;letter-spacing:0;word-spacing:0;text-anchor:start;fill:#000;fill-opacity:1;stroke:none;stroke-width:.26458332" xml:space="preserve"><tspan id="tspan2637" style="font-size:28.22222137px;text-align:start;text-anchor:start;stroke-width:.26458332" x="607.74" y="-393.433">State:</tspan></text><text id="text2661" x="606.83" y="-441.058" style="font-style:normal;font-weight:400;font-size:28.22222137px;line-height:1.25;font-family:sans-serif;text-align:start;letter-spacing:0;word-spacing:0;text-anchor:start;fill:#000;fill-opacity:1;stroke:none;stroke-width:.26458332" xml:space="preserve"><tspan id="tspan2659" style="font-size:28.22222137px;text-align:start;text-anchor:start;stroke-width:.26458332" x="606.83" y="-441.058">Phase: Idle</tspan></text></g><text xml:space="preserve" style="font-style:normal;font-weight:400;font-size:28.22222137px;line-height:1.25;font-family:sans-serif;text-align:start;letter-spacing:0;word-spacing:0;text-anchor:start;fill:#000;fill-opacity:1;stroke:none;stroke-width:.26458332" id="text5325" x="790.98" y="662.086"><tspan x="790.98" y="662.086" style="font-size:28.22222137px;text-align:start;text-anchor:start;stroke-width:.26458332" id="tspan5323">P<tspan id="tspan5345" style="font-size:64.99999762%;text-align:start;baseline-shift:sub;text-anchor:start">1</tspan> seed</tspan></text><text xml:space="preserve" style="font-style:normal;font-weight:400;font-size:28.22222137px;line-height:1.25;font-family:sans-serif;text-align:start;letter-spacing:0;word-spacing:0;text-anchor:start;fill:#000;fill-opacity:1;stroke:none;stroke-width:.26458332" id="text5329" x="790.98" y="291.67"><tspan x="790.98" y="291.67" style="font-size:28.22222137px;text-align:start;text-anchor:start;stroke-width:.26458332" id="tspan5327">P<tspan id="tspan5339" style="font-size:64.99999762%;text-align:start;baseline-shift:sub;text-anchor:start">2</tspan> seed</tspan></text><text xml:space="preserve" style="font-style:normal;font-weight:400;font-size:28.22222137px;line-height:1.25;font-family:sans-serif;text-align:start;letter-spacing:0;word-spacing:0;text-anchor:start;fill:#000;fill-opacity:1;stroke:none;stroke-width:.26458332" id="text5333" x="790.98" y="-25.83"><tspan x="790.98" y="-25.83" style="font-size:28.22222137px;text-align:start;text-anchor:start;stroke-width:.26458332" id="tspan5331">P<tspan id="tspan5335" style="font-size:64.99999762%;text-align:start;baseline-shift:sub;text-anchor:start">1</tspan> hash</tspan></text><text id="text2701" x="792.165" y="-287.791" style="font-style:normal;font-weight:400;font-size:28.22222137px;line-height:1.25;font-family:sans-serif;text-align:start;letter-spacing:0;word-spacing:0;text-anchor:start;fill:#000;fill-opacity:1;stroke:none;stroke-width:.26458332" xml:space="preserve"><tspan id="tspan2699" style="font-size:28.22222137px;text-align:start;text-anchor:start;stroke-width:.26458332" x="792.165" y="-287.791">Game action</tspan></text><g id="g3209" transform="translate(8.9958705,-1.0584126)"><path style="fill-rule:evenodd;stroke-width:.52916664;stroke-miterlimit:4;stroke-dasharray:none" id="path2633" d="m 718.60834,-154.46875 a 13.229167,13.229167 0 0 0 -13.22917,13.22916 13.229167,13.229167 0 0 0 13.22917,13.22917 13.229167,13.229167 0 0 0 13.22916,-13.22917 13.229167,13.229167 0 0 0 -13.22916,-13.22916 z m 0,2.64583 a 10.583333,10.583333 0 0 1 6.48022,2.23242 l -6.48074,6.48074 -6.48591,-6.48591 a 10.583333,10.583333 0 0 1 6.48643,-2.22725 z m 8.35659,4.09794 a 10.583333,10.583333 0 0 1 2.22674,6.48539 10.583333,10.583333 0 0 1 -2.23242,6.48075 l -6.48023,-6.48023 z m -16.70802,0.005 6.48022,6.48074 -6.48539,6.48539 a 10.583333,10.583333 0 0 1 -2.22673,-6.48591 10.583333,10.583333 0 0 1 2.2319,-6.48022 z m 8.35143,8.35143 6.48539,6.48539 a 10.583333,10.583333 0 0 1 -6.48539,2.22674 10.583333,10.583333 0 0 1 -6.48074,-2.23191 z"/><rect id="rect3145" width="259.292" height="127" x="588.962" y="-228.462" rx="10.583" ry="10.583" style="fill:none;fill-opacity:1;fill-rule:evenodd;stroke:#000;stroke-width:5.29166651;stroke-linecap:round;stroke-miterlimit:4;stroke-dasharray:none;stroke-dashoffset:0;stroke-opacity:1"/><text xml:space="preserve" style="font-style:normal;font-weight:400;font-size:28.22222137px;line-height:1.25;font-family:sans-serif;text-align:start;letter-spacing:0;word-spacing:0;text-anchor:start;fill:#000;fill-opacity:1;stroke:none;stroke-width:.26458332" id="text3149" x="610.915" y="-130.966"><tspan x="610.915" y="-130.966" style="font-size:28.22222137px;text-align:start;text-anchor:start;stroke-width:.26458332" id="tspan3147">State:</tspan></text><text xml:space="preserve" style="font-style:normal;font-weight:400;font-size:28.22222137px;line-height:1.25;font-family:sans-serif;text-align:start;letter-spacing:0;word-spacing:0;text-anchor:start;fill:#000;fill-opacity:1;stroke:none;stroke-width:.26458332" id="text3153" x="610.005" y="-178.591"><tspan x="610.005" y="-178.591" style="font-size:28.22222137px;text-align:start;text-anchor:start;stroke-width:.26458332" id="tspan3151">Phase: Commit</tspan></text></g><g id="g3219" transform="translate(39.687521,31.749984)"><text id="text2683" x="579.313" y="148.434" style="font-style:normal;font-weight:400;font-size:28.22222137px;line-height:1.25;font-family:sans-serif;text-align:start;letter-spacing:0;word-spacing:0;text-anchor:start;fill:#000;fill-opacity:1;stroke:none;stroke-width:.26458332" xml:space="preserve"><tspan id="tspan2681" style="font-size:28.22222137px;text-align:start;text-anchor:start;stroke-width:.26458332" x="579.313" y="148.434">P<tspan id="tspan5337" style="font-size:64.99999762%;text-align:start;baseline-shift:sub;text-anchor:start">1</tspan> hash</tspan></text><path id="path3155" d="m 687.91667,77.306246 a 13.229167,13.229167 0 0 0 -13.22917,13.22916 13.229167,13.229167 0 0 0 13.22917,13.229174 13.229167,13.229167 0 0 0 13.22916,-13.229174 13.229167,13.229167 0 0 0 -13.22916,-13.22916 z m 0,2.64583 a 10.583333,10.583333 0 0 1 6.48022,2.23242 l -6.48074,6.48074 -6.48591,-6.48591 a 10.583333,10.583333 0 0 1 6.48643,-2.22725 z m 8.35659,4.09794 a 10.583333,10.583333 0 0 1 2.22674,6.48539 10.583333,10.583333 0 0 1 -2.23242,6.48075 l -6.48023,-6.48023 z m -16.70802,0.005 6.48022,6.48074 -6.48539,6.48539 a 10.583333,10.583333 0 0 1 -2.22673,-6.48591 10.583333,10.583333 0 0 1 2.2319,-6.48022 z m 8.35143,8.35143 6.48539,6.48539 a 10.583333,10.583333 0 0 1 -6.48539,2.226744 10.583333,10.583333 0 0 1 -6.48074,-2.231914 z" style="fill-rule:evenodd;stroke-width:.52916664;stroke-miterlimit:4;stroke-dasharray:none"/><rect style="fill:none;fill-opacity:1;fill-rule:evenodd;stroke:#000;stroke-width:5.29166651;stroke-linecap:round;stroke-miterlimit:4;stroke-dasharray:none;stroke-dashoffset:0;stroke-opacity:1" id="rect3157" width="259.292" height="179.917" x="558.271" y="3.312" rx="10.583" ry="10.583"/><text id="text3161" x="580.223" y="100.809" style="font-style:normal;font-weight:400;font-size:28.22222137px;line-height:1.25;font-family:sans-serif;text-align:start;letter-spacing:0;word-spacing:0;text-anchor:start;fill:#000;fill-opacity:1;stroke:none;stroke-width:.26458332" xml:space="preserve"><tspan id="tspan3159" style="font-size:28.22222137px;text-align:start;text-anchor:start;stroke-width:.26458332" x="580.223" y="100.809">State:</tspan></text><text id="text3165" x="579.313" y="53.184" style="font-style:normal;font-weight:400;font-size:28.22222137px;line-height:1.25;font-family:sans-serif;text-align:start;letter-spacing:0;word-spacing:0;text-anchor:start;fill:#000;fill-opacity:1;stroke:none;stroke-width:.26458332" xml:space="preserve"><tspan id="tspan3163" style="font-size:28.22222137px;text-align:start;text-anchor:start;stroke-width:.26458332" x="579.313" y="53.184">Phase: Reply</tspan></text></g><g id="g3241" transform="translate(79.904196,53.975005)"><text id="text2697" x="539.097" y="814.125" style="font-style:normal;font-weight:400;font-size:28.22222137px;line-height:1.25;font-family:sans-serif;text-align:start;letter-spacing:0;word-spacing:0;text-anchor:start;fill:#000;fill-opacity:1;stroke:none;stroke-width:.26458332" xml:space="preserve"><tspan id="tspan2695" style="font-size:28.22222137px;text-align:start;text-anchor:start;stroke-width:.26458332" x="539.097" y="814.125">RNG</tspan></text><path id="path3179" style="fill-rule:evenodd;stroke-width:.52916664;stroke-miterlimit:4;stroke-dasharray:none" d="m 658.28334,756.22708 a 10.583333,10.583333 0 0 1 -10.58333,10.58333 10.583333,10.583333 0 0 1 -10.58333,-10.58333 10.583333,10.583333 0 0 1 10.58333,-10.58333 10.583333,10.583333 0 0 1 10.58333,10.58333 z m 2.64584,0 a 13.229167,13.229167 0 0 1 -13.22917,13.22917 13.229167,13.229167 0 0 1 -13.22917,-13.22917 13.229167,13.229167 0 0 1 13.22917,-13.22917 13.229167,13.229167 0 0 1 13.22917,13.22917 z"/><rect id="rect3181" width="259.292" height="179.917" x="518.054" y="669.004" rx="10.583" ry="10.583" style="fill:none;fill-opacity:1;fill-rule:evenodd;stroke:#000;stroke-width:5.29166651;stroke-linecap:round;stroke-miterlimit:4;stroke-dasharray:none;stroke-dashoffset:0;stroke-opacity:1"/><text xml:space="preserve" style="font-style:normal;font-weight:400;font-size:28.22222137px;line-height:1.25;font-family:sans-serif;text-align:start;letter-spacing:0;word-spacing:0;text-anchor:start;fill:#000;fill-opacity:1;stroke:none;stroke-width:.26458332" id="text3185" x="540.006" y="766.5"><tspan x="540.006" y="766.5" style="font-size:28.22222137px;text-align:start;text-anchor:start;stroke-width:.26458332" id="tspan3183">State:</tspan></text><text xml:space="preserve" style="font-style:normal;font-weight:400;font-size:28.22222137px;line-height:1.25;font-family:sans-serif;text-align:start;letter-spacing:0;word-spacing:0;text-anchor:start;fill:#000;fill-opacity:1;stroke:none;stroke-width:.26458332" id="text3189" x="539.097" y="718.875"><tspan x="539.097" y="718.875" style="font-size:28.22222137px;text-align:start;text-anchor:start;stroke-width:.26458332" id="tspan3187">Phase: Idle</tspan></text></g><g id="g3231" transform="translate(98.954153,64.558348)"><text xml:space="preserve" style="font-style:normal;font-weight:400;font-size:28.22222137px;line-height:1.25;font-family:sans-serif;text-align:start;letter-spacing:0;word-spacing:0;text-anchor:start;fill:#000;fill-opacity:1;stroke:none;stroke-width:.26458332" id="text2693" x="520.047" y="480.75"><tspan x="520.047" y="480.75" style="font-size:28.22222137px;text-align:start;text-anchor:start;stroke-width:.26458332" id="tspan2691">P<tspan id="tspan5343" style="font-size:64.99999762%;text-align:start;baseline-shift:sub;text-anchor:start">2</tspan> seed</tspan></text><path style="fill-rule:evenodd;stroke-width:.52916664;stroke-miterlimit:4;stroke-dasharray:none" id="path3167" d="m 628.65001,361.99792 a 13.229167,13.229167 0 0 0 -13.22917,13.22916 13.229167,13.229167 0 0 0 13.22917,13.22917 13.229167,13.229167 0 0 0 13.22916,-13.22917 13.229167,13.229167 0 0 0 -13.22916,-13.22916 z m 0,2.64583 a 10.583333,10.583333 0 0 1 6.48022,2.23242 l -6.48074,6.48074 -6.48591,-6.48591 a 10.583333,10.583333 0 0 1 6.48643,-2.22725 z m 8.35659,4.09794 a 10.583333,10.583333 0 0 1 2.22674,6.48539 10.583333,10.583333 0 0 1 -2.23242,6.48075 l -6.48023,-6.48023 z m -16.70802,0.005 6.48022,6.48074 -6.48539,6.48539 a 10.583333,10.583333 0 0 1 -2.22673,-6.48591 10.583333,10.583333 0 0 1 2.2319,-6.48022 z m 8.35143,8.35143 6.48539,6.48539 a 10.583333,10.583333 0 0 1 -6.48539,2.22674 10.583333,10.583333 0 0 1 -6.48074,-2.23191 z"/><rect id="rect3169" width="259.292" height="232.833" x="499.004" y="288.004" rx="10.583" ry="10.583" style="fill:none;fill-opacity:1;fill-rule:evenodd;stroke:#000;stroke-width:5.29166698;stroke-linecap:round;stroke-miterlimit:4;stroke-dasharray:none;stroke-dashoffset:0;stroke-opacity:1"/><text xml:space="preserve" style="font-style:normal;font-weight:400;font-size:28.22222137px;line-height:1.25;font-family:sans-serif;text-align:start;letter-spacing:0;word-spacing:0;text-anchor:start;fill:#000;fill-opacity:1;stroke:none;stroke-width:.26458332" id="text3173" x="520.956" y="385.5"><tspan x="520.956" y="385.5" style="font-size:28.22222137px;text-align:start;text-anchor:start;stroke-width:.26458332" id="tspan3171">State:</tspan></text><text xml:space="preserve" style="font-style:normal;font-weight:400;font-size:28.22222137px;line-height:1.25;font-family:sans-serif;text-align:start;letter-spacing:0;word-spacing:0;text-anchor:start;fill:#000;fill-opacity:1;stroke:none;stroke-width:.26458332" id="text3177" x="520.047" y="337.875"><tspan x="520.047" y="337.875" style="font-size:28.22222137px;text-align:start;text-anchor:start;stroke-width:.26458332" id="tspan3175">Phase: Reveal</tspan></text><text xml:space="preserve" style="font-style:normal;font-weight:400;font-size:28.22222137px;line-height:1.25;font-family:sans-serif;text-align:start;letter-spacing:0;word-spacing:0;text-anchor:start;fill:#000;fill-opacity:1;stroke:none;stroke-width:.26458332" id="text3193" x="520.047" y="433.125"><tspan x="520.047" y="433.125" style="font-size:28.22222137px;text-align:start;text-anchor:start;stroke-width:.26458332" id="tspan3191">P<tspan id="tspan5341" style="font-size:64.99999762%;text-align:start;baseline-shift:sub;text-anchor:start">1</tspan> hash</tspan></text></g></g><g id="g5374" transform="translate(3.7822075)"><path d="m 350.75946,-430.60424 a 10.583333,10.583333 0 0 1 -10.58333,10.58334 10.583333,10.583333 0 0 1 -10.58333,-10.58334 10.583333,10.583333 0 0 1 10.58333,-10.58333 10.583333,10.583333 0 0 1 10.58333,10.58333 z m 2.64584,0 a 13.229167,13.229167 0 0 1 -13.22917,13.22917 13.229167,13.229167 0 0 1 -13.22917,-13.22917 13.229167,13.229167 0 0 1 13.22917,-13.22916 13.229167,13.229167 0 0 1 13.22917,13.22916 z" style="fill-rule:evenodd;stroke-width:.52916664;stroke-miterlimit:4;stroke-dasharray:none" id="path12"/><path id="path875" d="M 340.02416,-401.9833 V 781.65821" style="fill:none;stroke:#000;stroke-width:2.64583302;stroke-linecap:round;stroke-linejoin:miter;stroke-miterlimit:4;stroke-dasharray:none;stroke-opacity:1;marker-end:url(#Arrow2Mend)"/><g id="g2597" transform="translate(341.67284,527.48598)"><path id="path2047" d="m -1.4967102,311.9141 v 12.01096" style="fill:none;stroke:#000;stroke-width:2.64583325;stroke-linecap:round;stroke-linejoin:miter;stroke-miterlimit:4;stroke-dasharray:none;stroke-opacity:1"/><path style="fill:none;stroke:#000;stroke-width:2.64583325;stroke-linecap:round;stroke-linejoin:miter;stroke-miterlimit:4;stroke-dasharray:2.64583334,5.29166668;stroke-dashoffset:0;stroke-opacity:1" id="path2587" d="m -1.4967102,329.37656 v 12.01096"/></g><g id="g2593" transform="translate(338.654,-508.96351)"><path style="fill:none;stroke:#000;stroke-width:2.64583325;stroke-linecap:round;stroke-linejoin:miter;stroke-miterlimit:4;stroke-dasharray:none;stroke-opacity:1;marker-end:url(#marker2003)" id="path1999" d="M 1.4967084,22.0879 V 48.546235"/><path id="path2589" d="M 1.5221307,5.9589409 V 17.969902" style="fill:none;stroke:#000;stroke-width:2.64583325;stroke-linecap:round;stroke-linejoin:miter;stroke-miterlimit:4;stroke-dasharray:2.64583334,5.29166668;stroke-dashoffset:0;stroke-opacity:1"/></g><path id="path4697" style="fill-rule:evenodd;stroke-width:.52916664;stroke-miterlimit:4;stroke-dasharray:none" d="m 350.75946,812.93749 a 10.583333,10.583333 0 0 1 -10.58333,10.58334 10.583333,10.583333 0 0 1 -10.58333,-10.58334 10.583333,10.583333 0 0 1 10.58333,-10.58333 10.583333,10.583333 0 0 1 10.58333,10.58333 z m 2.64584,0 a 13.229167,13.229167 0 0 1 -13.22917,13.22917 13.229167,13.229167 0 0 1 -13.22917,-13.22917 13.229167,13.229167 0 0 1 13.22917,-13.22916 13.229167,13.229167 0 0 1 13.22917,13.22916 z"/></g><text id="text5351" x="109.54" y="214.917" style="font-style:normal;font-weight:400;font-size:28.22222137px;line-height:1.25;font-family:sans-serif;text-align:start;letter-spacing:0;word-spacing:0;text-anchor:start;fill:#000;fill-opacity:1;stroke:none;stroke-width:.26458332" xml:space="preserve"><tspan id="tspan5349" style="font-size:28.22222137px;text-align:start;text-anchor:start;stroke-width:.26458332" x="109.54" y="214.917">Game action</tspan></text></g></g></g></svg>