<svg xmlns="http://www.w3.org/2000/svg" xmlns:svg="http://www.w3.org/2000/svg" id="svg8" width="350" height="320" version="1.1" viewBox="0 0 92.604 84.667"><defs id="defs2"><marker id="marker12947" orient="auto" refX="0" refY="0" style="overflow:visible"><path id="path12945" style="fill:#ff8000;fill-opacity:.50196078;fill-rule:evenodd;stroke:#ff8000;stroke-width:.625;stroke-linejoin:round;stroke-opacity:.50196078" d="M 8.7185878,4.0337352 -2.2072895,0.01601326 8.7185884,-4.0017078 c -1.7454984,2.3720609 -1.7354408,5.6174519 -6e-7,8.035443 z" transform="scale(-0.6)"/></marker><marker style="overflow:visible" id="marker12775" orient="auto" refX="0" refY="0"><path id="path12773" d="M 8.7185878,4.0337352 -2.2072895,0.01601326 8.7185884,-4.0017078 c -1.7454984,2.3720609 -1.7354408,5.6174519 -6e-7,8.035443 z" transform="scale(-0.6)" style="fill:#0080ff;fill-opacity:1;fill-rule:evenodd;stroke:#0080ff;stroke-width:.625;stroke-linejoin:round;stroke-opacity:1"/></marker><marker id="marker12055" orient="auto" refX="0" refY="0" style="overflow:visible"><path id="path12053" style="fill:#ff8000;fill-opacity:1;fill-rule:evenodd;stroke:#ff8000;stroke-width:.625;stroke-linejoin:round;stroke-opacity:1" d="M 8.7185878,4.0337352 -2.2072895,0.01601326 8.7185884,-4.0017078 c -1.7454984,2.3720609 -1.7354408,5.6174519 -6e-7,8.035443 z" transform="scale(-0.6)"/></marker><marker style="overflow:visible" id="marker11211" orient="auto" refX="0" refY="0"><path id="path11209" d="M 8.7185878,4.0337352 -2.2072895,0.01601326 8.7185884,-4.0017078 c -1.7454984,2.3720609 -1.7354408,5.6174519 -6e-7,8.035443 z" transform="scale(-0.6)" style="fill:#0080ff;fill-opacity:1;fill-rule:evenodd;stroke:#0080ff;stroke-width:.625;stroke-linejoin:round;stroke-opacity:1"/></marker><marker style="overflow:visible" id="marker9781" orient="auto" refX="0" refY="0"><path id="path9779" d="M 8.7185878,4.0337352 -2.2072895,0.01601326 8.7185884,-4.0017078 c -1.7454984,2.3720609 -1.7354408,5.6174519 -6e-7,8.035443 z" transform="scale(-0.6)" style="fill:#0080ff;fill-opacity:1;fill-rule:evenodd;stroke:#0080ff;stroke-width:.625;stroke-linejoin:round;stroke-opacity:1"/></marker><marker style="overflow:visible" id="marker8272" orient="auto" refX="0" refY="0"><path id="path8270" d="M 8.7185878,4.0337352 -2.2072895,0.01601326 8.7185884,-4.0017078 c -1.7454984,2.3720609 -1.7354408,5.6174519 -6e-7,8.035443 z" transform="scale(-0.6)" style="fill:#000;fill-opacity:1;fill-rule:evenodd;stroke:#000;stroke-width:.625;stroke-linejoin:round;stroke-opacity:1"/></marker><marker style="overflow:visible" id="Arrow2Lend" orient="auto" refX="0" refY="0"><path id="path898" d="M 8.7185878,4.0337352 -2.2072895,0.01601326 8.7185884,-4.0017078 c -1.7454984,2.3720609 -1.7354408,5.6174519 -6e-7,8.035443 z" transform="matrix(-1.1,0,0,-1.1,-1.1,0)" style="fill:#000;fill-opacity:1;fill-rule:evenodd;stroke:#000;stroke-width:.625;stroke-linejoin:round;stroke-opacity:1"/></marker><marker style="overflow:visible" id="marker7932" orient="auto" refX="0" refY="0"><path id="path7930" d="M 8.7185878,4.0337352 -2.2072895,0.01601326 8.7185884,-4.0017078 c -1.7454984,2.3720609 -1.7354408,5.6174519 -6e-7,8.035443 z" transform="scale(-0.6)" style="fill:#000;fill-opacity:1;fill-rule:evenodd;stroke:#000;stroke-width:.625;stroke-linejoin:round;stroke-opacity:1"/></marker><marker style="overflow:visible" id="marker7832" orient="auto" refX="0" refY="0"><path id="path7830" d="M 8.7185878,4.0337352 -2.2072895,0.01601326 8.7185884,-4.0017078 c -1.7454984,2.3720609 -1.7354408,5.6174519 -6e-7,8.035443 z" transform="scale(-0.6)" style="fill:#000;fill-opacity:1;fill-rule:evenodd;stroke:#000;stroke-width:.625;stroke-linejoin:round;stroke-opacity:1"/></marker><marker style="overflow:visible" id="Arrow1Lend" orient="auto" refX="0" refY="0"><path transform="matrix(-0.8,0,0,-0.8,-10,0)" style="fill:#000;fill-opacity:1;fill-rule:evenodd;stroke:#000;stroke-width:1.00000003pt;stroke-opacity:1" id="path880" d="M 0,0 5,-5 -12.5,0 5,5 Z"/></marker><marker id="marker4415" orient="auto" refX="0" refY="0" style="overflow:visible"><path id="path4413" style="fill:#000;fill-opacity:1;fill-rule:evenodd;stroke:#000;stroke-width:.625;stroke-linejoin:round;stroke-opacity:1" d="M 8.7185878,4.0337352 -2.2072895,0.01601326 8.7185884,-4.0017078 c -1.7454984,2.3720609 -1.7354408,5.6174519 -6e-7,8.035443 z" transform="scale(-0.6)"/></marker><marker style="overflow:visible" id="marker3737" orient="auto" refX="0" refY="0"><path id="path3735" d="M 8.7185878,4.0337352 -2.2072895,0.01601326 8.7185884,-4.0017078 c -1.7454984,2.3720609 -1.7354408,5.6174519 -6e-7,8.035443 z" transform="scale(-0.6)" style="fill:#000;fill-opacity:1;fill-rule:evenodd;stroke:#000;stroke-width:.625;stroke-linejoin:round;stroke-opacity:1"/></marker><marker id="marker3503" orient="auto" refX="0" refY="0" style="overflow:visible"><path id="path3501" style="fill:#000;fill-opacity:1;fill-rule:evenodd;stroke:#000;stroke-width:.625;stroke-linejoin:round;stroke-opacity:1" d="M 8.7185878,4.0337352 -2.2072895,0.01601326 8.7185884,-4.0017078 c -1.7454984,2.3720609 -1.7354408,5.6174519 -6e-7,8.035443 z" transform="scale(-0.6)"/></marker><marker style="overflow:visible" id="marker3423" orient="auto" refX="0" refY="0"><path id="path3421" d="M 8.7185878,4.0337352 -2.2072895,0.01601326 8.7185884,-4.0017078 c -1.7454984,2.3720609 -1.7354408,5.6174519 -6e-7,8.035443 z" transform="scale(-0.6)" style="fill:#000;fill-opacity:1;fill-rule:evenodd;stroke:#000;stroke-width:.625;stroke-linejoin:round;stroke-opacity:1"/></marker><marker id="marker3353" orient="auto" refX="0" refY="0" style="overflow:visible"><path id="path3351" style="fill:#000;fill-opacity:1;fill-rule:evenodd;stroke:#000;stroke-width:.625;stroke-linejoin:round;stroke-opacity:1" d="M 8.7185878,4.0337352 -2.2072895,0.01601326 8.7185884,-4.0017078 c -1.7454984,2.3720609 -1.7354408,5.6174519 -6e-7,8.035443 z" transform="scale(-0.6)"/></marker><marker id="marker3137" orient="auto" refX="0" refY="0" style="overflow:visible"><path id="path3135" style="fill:#000;fill-opacity:1;fill-rule:evenodd;stroke:#000;stroke-width:.625;stroke-linejoin:round;stroke-opacity:1" d="M 8.7185878,4.0337352 -2.2072895,0.01601326 8.7185884,-4.0017078 c -1.7454984,2.3720609 -1.7354408,5.6174519 -6e-7,8.035443 z" transform="scale(-0.6)"/></marker><marker style="overflow:visible" id="marker2627" orient="auto" refX="0" refY="0"><path id="path2625" d="M 8.7185878,4.0337352 -2.2072895,0.01601326 8.7185884,-4.0017078 c -1.7454984,2.3720609 -1.7354408,5.6174519 -6e-7,8.035443 z" transform="scale(-0.6)" style="fill:#000;fill-opacity:1;fill-rule:evenodd;stroke:#000;stroke-width:.625;stroke-linejoin:round;stroke-opacity:1"/></marker><marker id="marker2051" orient="auto" refX="0" refY="0" style="overflow:visible"><path id="path2049" style="fill:#000;fill-opacity:1;fill-rule:evenodd;stroke:#000;stroke-width:.625;stroke-linejoin:round;stroke-opacity:1" d="M 8.7185878,4.0337352 -2.2072895,0.01601326 8.7185884,-4.0017078 c -1.7454984,2.3720609 -1.7354408,5.6174519 -6e-7,8.035443 z" transform="scale(-0.6)"/></marker><marker style="overflow:visible" id="marker2003" orient="auto" refX="0" refY="0"><path id="path2001" d="M 8.7185878,4.0337352 -2.2072895,0.01601326 8.7185884,-4.0017078 c -1.7454984,2.3720609 -1.7354408,5.6174519 -6e-7,8.035443 z" transform="scale(-0.6)" style="fill:#000;fill-opacity:1;fill-rule:evenodd;stroke:#000;stroke-width:.625;stroke-linejoin:round;stroke-opacity:1"/></marker><marker id="marker1629" orient="auto" refX="0" refY="0" style="overflow:visible"><path id="path1627" style="fill:#000;fill-opacity:1;fill-rule:evenodd;stroke:#000;stroke-width:.625;stroke-linejoin:round;stroke-opacity:1" d="M 8.7185878,4.0337352 -2.2072895,0.01601326 8.7185884,-4.0017078 c -1.7454984,2.3720609 -1.7354408,5.6174519 -6e-7,8.035443 z" transform="scale(-0.6)"/></marker><marker style="overflow:visible" id="Arrow2Mend" orient="auto" refX="0" refY="0"><path id="path904" d="M 8.7185878,4.0337352 -2.2072895,0.01601326 8.7185884,-4.0017078 c -1.7454984,2.3720609 -1.7354408,5.6174519 -6e-7,8.035443 z" transform="scale(-0.6)" style="fill:#000;fill-opacity:1;fill-rule:evenodd;stroke:#000;stroke-width:.625;stroke-linejoin:round;stroke-opacity:1"/></marker><marker style="overflow:visible" id="Arrow2Send" orient="auto" refX="0" refY="0"><path id="path910" d="M 8.7185878,4.0337352 -2.2072895,0.01601326 8.7185884,-4.0017078 c -1.7454984,2.3720609 -1.7354408,5.6174519 -6e-7,8.035443 z" transform="matrix(-0.3,0,0,-0.3,0.69,0)" style="fill:#000;fill-opacity:1;fill-rule:evenodd;stroke:#000;stroke-width:.625;stroke-linejoin:round;stroke-opacity:1"/></marker></defs><metadata id="metadata5"/><g id="layer1" transform="translate(0,-212.33333)"><g id="g13482" transform="matrix(0.1,0,0,0.1,75.491377,235.95189)"><rect style="opacity:1;fill:#fff;fill-rule:evenodd;stroke:none;stroke-width:2.64583325;stroke-linecap:round;stroke-miterlimit:4;stroke-dasharray:none;stroke-dashoffset:0;stroke-opacity:1" id="rect13388" width="926.042" height="846.667" x="-754.914" y="-236.186" rx="10.583" ry="10.583"/><g id="g13351" transform="translate(-3.9665757,15.483749)"><path d="m -400.18778,-118.39591 a 10.583333,10.583333 0 0 1 -10.58333,10.58334 10.583333,10.583333 0 0 1 -10.58333,-10.58334 10.583333,10.583333 0 0 1 10.58333,-10.58333 10.583333,10.583333 0 0 1 10.58333,10.58333 z m 2.64584,0 a 13.229167,13.229167 0 0 1 -13.22917,13.22917 13.229167,13.229167 0 0 1 -13.22917,-13.22917 13.229167,13.229167 0 0 1 13.22917,-13.22916 13.229167,13.229167 0 0 1 13.22917,13.22916 z" style="fill-rule:evenodd;stroke-width:.52916664;stroke-miterlimit:4;stroke-dasharray:none" id="path12"/><path id="path825" d="m -410.7711,121.8458 a 13.229167,13.229167 0 0 0 -13.22917,13.22916 13.229167,13.229167 0 0 0 13.22917,13.22917 13.229167,13.229167 0 0 0 13.22916,-13.22917 13.229167,13.229167 0 0 0 -13.22916,-13.22916 z m 0,2.64583 a 10.583333,10.583333 0 0 1 6.48022,2.23242 l -6.48074,6.48074 -6.48591,-6.48591 a 10.583333,10.583333 0 0 1 6.48643,-2.22725 z m 8.35659,4.09794 a 10.583333,10.583333 0 0 1 2.22674,6.48539 10.583333,10.583333 0 0 1 -2.23242,6.48075 l -6.48023,-6.48023 z m -16.70802,0.005 6.48022,6.48074 -6.48539,6.48539 a 10.583333,10.583333 0 0 1 -2.22673,-6.48591 10.583333,10.583333 0 0 1 2.2319,-6.48022 z m 8.35143,8.35143 6.48539,6.48539 a 10.583333,10.583333 0 0 1 -6.48539,2.22674 10.583333,10.583333 0 0 1 -6.48074,-2.23191 z" style="fill-rule:evenodd;stroke-width:.52916664;stroke-miterlimit:4;stroke-dasharray:none"/><path id="path875" d="M -410.79653,-90.102991 V 104.12372" style="fill:none;stroke:#000;stroke-width:2.64583325;stroke-linecap:round;stroke-linejoin:miter;stroke-miterlimit:4;stroke-dasharray:none;stroke-opacity:1;marker-end:url(#Arrow2Mend)"/><path style="fill-rule:evenodd;stroke-width:.52916664;stroke-miterlimit:4;stroke-dasharray:none" id="path1617" d="m -410.7711,415.00415 a 13.229167,13.229167 0 0 0 -13.22917,13.22916 13.229167,13.229167 0 0 0 13.22917,13.22917 13.229167,13.229167 0 0 0 13.22916,-13.22917 13.229167,13.229167 0 0 0 -13.22916,-13.22916 z m 0,2.64583 a 10.583333,10.583333 0 0 1 6.48022,2.23242 l -6.48074,6.48074 -6.48591,-6.48591 a 10.583333,10.583333 0 0 1 6.48643,-2.22725 z m 8.35659,4.09794 a 10.583333,10.583333 0 0 1 2.22674,6.48539 10.583333,10.583333 0 0 1 -2.23242,6.48075 l -6.48023,-6.48023 z m -16.70802,0.005 6.48022,6.48074 -6.48539,6.48539 a 10.583333,10.583333 0 0 1 -2.22673,-6.48591 10.583333,10.583333 0 0 1 2.2319,-6.48022 z m 8.35143,8.35143 6.48539,6.48539 a 10.583333,10.583333 0 0 1 -6.48539,2.22674 10.583333,10.583333 0 0 1 -6.48074,-2.23191 z"/><path style="fill:none;stroke:#000;stroke-width:2.64583302;stroke-linecap:round;stroke-linejoin:miter;stroke-miterlimit:4;stroke-dasharray:none;stroke-opacity:1;marker-end:url(#marker1629)" id="path1625" d="M -410.79653,161.94484 V 398.70511"/><g id="g2597" transform="translate(-409.2744,140.74164)"><path id="path2047" d="m -1.4967102,311.9141 v 12.01096" style="fill:none;stroke:#000;stroke-width:2.64583325;stroke-linecap:round;stroke-linejoin:miter;stroke-miterlimit:4;stroke-dasharray:none;stroke-opacity:1"/><path style="fill:none;stroke:#000;stroke-width:2.64583325;stroke-linecap:round;stroke-linejoin:miter;stroke-miterlimit:4;stroke-dasharray:2.64583334,5.29166668;stroke-dashoffset:0;stroke-opacity:1" id="path2587" d="m -1.4967102,329.37656 v 12.01096"/></g><g id="g2593" transform="translate(-412.29324,-194.03286)"><path style="fill:none;stroke:#000;stroke-width:2.64583325;stroke-linecap:round;stroke-linejoin:miter;stroke-miterlimit:4;stroke-dasharray:none;stroke-opacity:1;marker-end:url(#marker2003)" id="path1999" d="M 1.4967084,22.0879 V 48.546235"/><path id="path2589" d="M 1.5221307,5.9589409 V 17.969902" style="fill:none;stroke:#000;stroke-width:2.64583325;stroke-linecap:round;stroke-linejoin:miter;stroke-miterlimit:4;stroke-dasharray:2.64583334,5.29166668;stroke-dashoffset:0;stroke-opacity:1"/></g><g id="g3329" transform="translate(-14.816691,251.88332)"><g id="g3322" transform="translate(5.1860387,-0.0283001)"><path id="path2617" style="fill-rule:evenodd;stroke-width:.52916664;stroke-miterlimit:4;stroke-dasharray:none" d="m -59.690195,105.94056 a 10.583333,10.583333 0 0 1 -10.58333,10.58334 10.583333,10.583333 0 0 1 -10.58333,-10.58334 10.583333,10.583333 0 0 1 10.58333,-10.583331 10.583333,10.583333 0 0 1 10.58333,10.583331 z m 2.64584,0 a 13.229167,13.229167 0 0 1 -13.22917,13.22917 13.229167,13.229167 0 0 1 -13.22917,-13.22917 13.229167,13.229167 0 0 1 13.22917,-13.229165 13.229167,13.229167 0 0 1 13.22917,13.229165 z"/><path style="fill:none;stroke:#000;stroke-width:2.64583325;stroke-linecap:round;stroke-linejoin:miter;stroke-miterlimit:4;stroke-dasharray:none;stroke-opacity:1;marker-end:url(#marker3137)" id="path2621" d="m -70.298947,132.69072 v 52.91667"/><path id="path2623" d="M -70.298947,203.12845 V 256.0451" style="fill:none;stroke:#000;stroke-width:2.64583325;stroke-linecap:round;stroke-linejoin:miter;stroke-miterlimit:4;stroke-dasharray:none;stroke-opacity:1;marker-end:url(#marker2627)"/></g><rect style="fill:none;fill-rule:evenodd;stroke:#000;stroke-width:2.64583325;stroke-linecap:round;stroke-miterlimit:4;stroke-dasharray:none;stroke-dashoffset:0;stroke-opacity:1" id="rect2977" width="132.292" height="211.667" x="-131.233" y="70.517" rx="10.583" ry="10.583"/></g><g id="g3499" transform="translate(505.88333,-214.31252)"><g id="g3493" transform="translate(6.3499763,-3.4103268)"><path d="m -581.55416,317.57893 a 10.583333,10.583333 0 0 1 -10.58332,10.58334 10.583333,10.583333 0 0 1 -10.58334,-10.58334 10.583333,10.583333 0 0 1 10.58334,-10.58333 10.583333,10.583333 0 0 1 10.58332,10.58333 z m 2.64584,0 a 13.229167,13.229167 0 0 1 -13.22916,13.22917 13.229167,13.229167 0 0 1 -13.22918,-13.22917 13.229167,13.229167 0 0 1 13.22918,-13.22916 13.229167,13.229167 0 0 1 13.22916,13.22916 z" style="fill-rule:evenodd;stroke-width:.52916664;stroke-miterlimit:4;stroke-dasharray:none" id="path3331"/><path id="path3333" d="m -592.16291,344.32909 v 52.91667" style="fill:none;stroke:#000;stroke-width:2.64583325;stroke-linecap:round;stroke-linejoin:miter;stroke-miterlimit:4;stroke-dasharray:none;stroke-opacity:1;marker-end:url(#marker3423)"/></g><rect id="rect3339" width="132.292" height="132.292" x="-651.933" y="283.242" rx="10.583" ry="10.583" style="fill:none;fill-rule:evenodd;stroke:#000;stroke-width:2.64583325;stroke-linecap:round;stroke-miterlimit:4;stroke-dasharray:none;stroke-dashoffset:0;stroke-opacity:1"/></g><g id="g3599" transform="translate(-10.583308,19.049976)"><path d="m -58.737539,-137.44588 a 10.583333,10.583333 0 0 1 -10.58333,10.58333 10.583333,10.583333 0 0 1 -10.58333,-10.58333 10.583333,10.583333 0 0 1 10.58333,-10.58333 10.583333,10.583333 0 0 1 10.58333,10.58333 z m 2.64584,0 a 13.229167,13.229167 0 0 1 -13.22917,13.22917 13.229167,13.229167 0 0 1 -13.22917,-13.22917 13.229167,13.229167 0 0 1 13.22917,-13.22917 13.229167,13.229167 0 0 1 13.22917,13.22917 z" style="fill-rule:evenodd;stroke-width:.52916664;stroke-miterlimit:4;stroke-dasharray:none" id="path2599"/><rect style="fill:none;fill-rule:evenodd;stroke:#000;stroke-width:2.64583325;stroke-linecap:round;stroke-miterlimit:4;stroke-dasharray:none;stroke-dashoffset:0;stroke-opacity:1" id="rect3583" width="132.292" height="132.292" x="-135.467" y="-203.592" rx="10.583" ry="10.583"/></g><path id="path3733" d="M -79.955022,-27.339539 V 38.701949" style="fill:none;stroke:#000;stroke-width:5.29166603;stroke-linecap:round;stroke-linejoin:miter;stroke-miterlimit:4;stroke-dasharray:none;stroke-opacity:1;marker-end:url(#marker3737)"/><path style="fill:none;stroke:#000;stroke-width:5.29166603;stroke-linecap:round;stroke-linejoin:miter;stroke-miterlimit:4;stroke-dasharray:none;stroke-opacity:1;marker-end:url(#marker4415)" id="path4411" d="m -79.955022,226.13132 v 66.04149"/><path id="path7730" d="M -345.69188,136.20545 H -215.2233" style="fill:none;stroke:#000;stroke-width:10.58333302;stroke-linecap:butt;stroke-linejoin:miter;stroke-miterlimit:4;stroke-dasharray:none;stroke-opacity:1;marker-end:url(#marker8272)"/><text id="text8846" x="-446.711" y="-125.513" style="font-style:normal;font-weight:400;font-size:28.22222137px;line-height:1.25;font-family:sans-serif;text-align:end;letter-spacing:0;word-spacing:0;text-anchor:end;fill:#000;fill-opacity:1;stroke:none;stroke-width:.26458332" xml:space="preserve"><tspan style="font-size:28.22222137px;text-align:end;text-anchor:end;stroke-width:.26458332" id="tspan8844" x="-446.711" y="-125.513">Serializable</tspan><tspan id="tspan8848" style="font-size:28.22222137px;text-align:end;text-anchor:end;stroke-width:.26458332" x="-446.711" y="-90.236">state</tspan></text><text id="text8852" x="-446.711" y="127.957" style="font-style:normal;font-weight:400;font-size:28.22222137px;line-height:1.25;font-family:sans-serif;text-align:end;letter-spacing:0;word-spacing:0;text-anchor:end;fill:#000;fill-opacity:1;stroke:none;stroke-width:.26458332" xml:space="preserve"><tspan style="font-size:28.22222137px;text-align:end;text-anchor:end;stroke-width:.26458332" id="tspan8850" x="-446.711" y="127.957">Non-serializable</tspan><tspan id="tspan8854" style="font-size:28.22222137px;text-align:end;text-anchor:end;stroke-width:.26458332" x="-446.711" y="163.235">state</tspan></text><text xml:space="preserve" style="font-style:normal;font-weight:400;font-size:28.22222137px;line-height:1.25;font-family:sans-serif;text-align:end;letter-spacing:0;word-spacing:0;text-anchor:end;fill:#000;fill-opacity:1;stroke:none;stroke-width:.26458332" id="text8860" x="-446.711" y="421.116"><tspan id="tspan8856" x="-446.711" y="421.116" style="font-size:28.22222137px;text-align:end;text-anchor:end;stroke-width:.26458332">Non-serializable</tspan><tspan x="-446.711" y="456.394" style="font-size:28.22222137px;text-align:end;text-anchor:end;stroke-width:.26458332" id="tspan8858">state</tspan></text><text id="text8864" x="-534.203" y="18.861" style="font-style:normal;font-weight:400;font-size:28.22222137px;line-height:1.25;font-family:sans-serif;letter-spacing:0;word-spacing:0;fill:#000;fill-opacity:1;stroke:none;stroke-width:.26458332" xml:space="preserve"><tspan style="font-size:28.22222137px;stroke-width:.26458332" id="tspan8862" x="-534.203" y="18.861">Action</tspan></text><text xml:space="preserve" style="font-style:normal;font-weight:400;font-size:28.22222137px;line-height:1.25;font-family:sans-serif;letter-spacing:0;word-spacing:0;fill:#000;fill-opacity:1;stroke:none;stroke-width:.26458332" id="text8868" x="-534.203" y="292.175"><tspan id="tspan8866" x="-534.203" y="292.175" style="font-size:28.22222137px;stroke-width:.26458332">Action</tspan></text><text id="text8872" x="19.094" y="-107.875" style="font-style:normal;font-weight:400;font-size:28.22222137px;line-height:1.25;font-family:sans-serif;letter-spacing:0;word-spacing:0;fill:#000;fill-opacity:1;stroke:none;stroke-width:.26458332" xml:space="preserve"><tspan style="font-size:28.22222137px;stroke-width:.26458332" id="tspan8870" x="19.094" y="-107.875">Proof</tspan></text><text xml:space="preserve" style="font-style:normal;font-weight:400;font-size:28.22222137px;line-height:1.25;font-family:sans-serif;letter-spacing:0;word-spacing:0;fill:#000;fill-opacity:1;stroke:none;stroke-width:.26458332" id="text8876" x="19.094" y="145.596"><tspan id="tspan8874" x="19.094" y="145.596" style="font-size:28.22222137px;stroke-width:.26458332">Proof</tspan></text><text id="text8880" x="19.094" y="438.755" style="font-style:normal;font-weight:400;font-size:28.22222137px;line-height:1.25;font-family:sans-serif;letter-spacing:0;word-spacing:0;fill:#000;fill-opacity:1;stroke:none;stroke-width:.26458332" xml:space="preserve"><tspan style="font-size:28.22222137px;stroke-width:.26458332" id="tspan8878" x="19.094" y="438.755">Proof</tspan></text><text id="text8884" x="-37.887" y="19.061" style="font-style:normal;font-weight:400;font-size:28.22222137px;line-height:1.25;font-family:sans-serif;letter-spacing:0;word-spacing:0;fill:#000;fill-opacity:1;stroke:none;stroke-width:.26458332" xml:space="preserve"><tspan style="font-size:28.22222137px;stroke-width:.26458332" id="tspan8882" x="-37.887" y="19.061">Diff</tspan></text><text id="text8888" x="-37.887" y="272.532" style="font-style:normal;font-weight:400;font-size:28.22222137px;line-height:1.25;font-family:sans-serif;letter-spacing:0;word-spacing:0;fill:#000;fill-opacity:1;stroke:none;stroke-width:.26458332" xml:space="preserve"><tspan style="font-size:28.22222137px;stroke-width:.26458332" id="tspan8886" x="-37.887" y="272.532">Diff</tspan></text></g></g></g></svg>